<svg width="48" height="48" viewBox="0 0 48 48" fill="none" xmlns="http://www.w3.org/2000/svg">
    <mask id="path-1-inside-1" fill="white">
        <path fill-rule="evenodd" clip-rule="evenodd" d="M48 24C48 37.2548 37.2548 48 24 48C10.7452 48 0 37.2548 0 24C0 10.7452 10.7452 0 24 0C37.2548 0 48 10.7452 48 24ZM14 20.5C14 19.6716 14.6716 19 15.5 19H23.5C24.3284 19 25 19.6716 25 20.5C25 21.3284 24.3284 22 23.5 22H15.5C14.6716 22 14 21.3284 14 20.5ZM34 20.5C34 21.8807 32.8807 23 31.5 23C30.1193 23 29 21.8807 29 20.5C29 19.1193 30.1193 18 31.5 18C32.8807 18 34 19.1193 34 20.5ZM23 29.5C23 28.6716 23.6716 28 24.5 28H32.5C33.3284 28 34 28.6716 34 29.5C34 30.3284 33.3284 31 32.5 31H24.5C23.6716 31 23 30.3284 23 29.5ZM19 29.5C19 30.8807 17.8807 32 16.5 32C15.1193 32 14 30.8807 14 29.5C14 28.1193 15.1193 27 16.5 27C17.8807 27 19 28.1193 19 29.5Z"/>
    </mask>
    <path d="M24 49.5C38.0833 49.5 49.5 38.0833 49.5 24H46.5C46.5 36.4264 36.4264 46.5 24 46.5V49.5ZM-1.5 24C-1.5 38.0833 9.91674 49.5 24 49.5V46.5C11.5736 46.5 1.5 36.4264 1.5 24H-1.5ZM24 -1.5C9.91674 -1.5 -1.5 9.91674 -1.5 24H1.5C1.5 11.5736 11.5736 1.5 24 1.5V-1.5ZM49.5 24C49.5 9.91674 38.0833 -1.5 24 -1.5V1.5C36.4264 1.5 46.5 11.5736 46.5 24H49.5ZM15.5 17.5C13.8431 17.5 12.5 18.8431 12.5 20.5H15.5V17.5ZM23.5 17.5H15.5V20.5H23.5V17.5ZM26.5 20.5C26.5 18.8431 25.1569 17.5 23.5 17.5V20.5H26.5ZM23.5 23.5C25.1569 23.5 26.5 22.1569 26.5 20.5H23.5V23.5ZM15.5 23.5H23.5V20.5H15.5V23.5ZM12.5 20.5C12.5 22.1569 13.8431 23.5 15.5 23.5V20.5H12.5ZM31.5 24.5C33.7091 24.5 35.5 22.7091 35.5 20.5H32.5C32.5 21.0523 32.0523 21.5 31.5 21.5V24.5ZM27.5 20.5C27.5 22.7091 29.2909 24.5 31.5 24.5V21.5C30.9477 21.5 30.5 21.0523 30.5 20.5H27.5ZM31.5 16.5C29.2909 16.5 27.5 18.2909 27.5 20.5H30.5C30.5 19.9477 30.9477 19.5 31.5 19.5V16.5ZM35.5 20.5C35.5 18.2909 33.7091 16.5 31.5 16.5V19.5C32.0523 19.5 32.5 19.9477 32.5 20.5H35.5ZM24.5 26.5C22.8431 26.5 21.5 27.8431 21.5 29.5H24.5V26.5ZM32.5 26.5H24.5V29.5H32.5V26.5ZM35.5 29.5C35.5 27.8431 34.1569 26.5 32.5 26.5V29.5H35.5ZM32.5 32.5C34.1569 32.5 35.5 31.1569 35.5 29.5H32.5V32.5ZM24.5 32.5H32.5V29.5H24.5V32.5ZM21.5 29.5C21.5 31.1569 22.8431 32.5 24.5 32.5V29.5H21.5ZM16.5 33.5C18.7091 33.5 20.5 31.7091 20.5 29.5H17.5C17.5 30.0523 17.0523 30.5 16.5 30.5V33.5ZM12.5 29.5C12.5 31.7091 14.2909 33.5 16.5 33.5V30.5C15.9477 30.5 15.5 30.0523 15.5 29.5H12.5ZM16.5 25.5C14.2909 25.5 12.5 27.2909 12.5 29.5H15.5C15.5 28.9477 15.9477 28.5 16.5 28.5V25.5ZM20.5 29.5C20.5 27.2909 18.7091 25.5 16.5 25.5V28.5C17.0523 28.5 17.5 28.9477 17.5 29.5H20.5Z" fill="#FF7C03" mask="url(#path-1-inside-1)"/>
</svg>
